<mxfile host="www.draw.io" modified="2019-11-27T12:52:30.431Z" agent="Mozilla/5.0 (X11; Linux x86_64) AppleWebKit/537.36 (KHTML, like Gecko) Chrome/78.0.3904.108 Safari/537.36" etag="2J7t63PC4t-HsZMyQGPV" version="12.3.2" type="github" pages="1">
  <diagram name="Page-1" id="edf60f1a-56cd-e834-aa8a-f176f3a09ee4">
    <mxGraphModel dx="813" dy="439" grid="1" gridSize="10" guides="1" tooltips="1" connect="1" arrows="1" fold="1" page="1" pageScale="1" pageWidth="1100" pageHeight="850" background="#ffffff" math="0" shadow="0">
      <root>
        <mxCell id="0"/>
        <mxCell id="1" parent="0"/>
        <mxCell id="RpBlWgj2_w3Yq7llD_Vg-4" style="edgeStyle=orthogonalEdgeStyle;rounded=0;orthogonalLoop=1;jettySize=auto;html=1;entryX=0.5;entryY=0;entryDx=0;entryDy=0;" edge="1" parent="1" source="60e70716793133e9-4" target="60e70716793133e9-5">
          <mxGeometry relative="1" as="geometry">
            <mxPoint x="369.8571428571429" y="139.8571428571429" as="targetPoint"/>
          </mxGeometry>
        </mxCell>
        <mxCell id="60e70716793133e9-4" value="User Starts Typing Text in Search Bar" style="rounded=0;whiteSpace=wrap;html=1;shadow=1;labelBackgroundColor=none;strokeWidth=1;fontFamily=Verdana;fontSize=8;align=center;" parent="1" vertex="1">
          <mxGeometry x="300" y="10" width="140" height="70" as="geometry"/>
        </mxCell>
        <mxCell id="RpBlWgj2_w3Yq7llD_Vg-8" style="edgeStyle=orthogonalEdgeStyle;rounded=0;orthogonalLoop=1;jettySize=auto;html=1;entryX=0.875;entryY=0.5;entryDx=0;entryDy=0;entryPerimeter=0;" edge="1" parent="1" source="60e70716793133e9-5" target="RpBlWgj2_w3Yq7llD_Vg-6">
          <mxGeometry relative="1" as="geometry"/>
        </mxCell>
        <mxCell id="RpBlWgj2_w3Yq7llD_Vg-9" value="No" style="text;html=1;align=center;verticalAlign=middle;resizable=0;points=[];;labelBackgroundColor=#ffffff;" vertex="1" connectable="0" parent="RpBlWgj2_w3Yq7llD_Vg-8">
          <mxGeometry x="-0.165" y="3" relative="1" as="geometry">
            <mxPoint x="3" y="-2" as="offset"/>
          </mxGeometry>
        </mxCell>
        <mxCell id="RpBlWgj2_w3Yq7llD_Vg-34" style="edgeStyle=orthogonalEdgeStyle;rounded=0;orthogonalLoop=1;jettySize=auto;html=1;" edge="1" parent="1" source="60e70716793133e9-5" target="RpBlWgj2_w3Yq7llD_Vg-30">
          <mxGeometry relative="1" as="geometry"/>
        </mxCell>
        <mxCell id="RpBlWgj2_w3Yq7llD_Vg-35" value="Yes" style="text;html=1;align=center;verticalAlign=middle;resizable=0;points=[];;labelBackgroundColor=#ffffff;" vertex="1" connectable="0" parent="RpBlWgj2_w3Yq7llD_Vg-34">
          <mxGeometry x="-0.261" y="2" relative="1" as="geometry">
            <mxPoint as="offset"/>
          </mxGeometry>
        </mxCell>
        <mxCell id="60e70716793133e9-5" value="&lt;font style=&quot;font-size: 16px&quot;&gt;Check Cache&lt;br&gt;Is Data Present&lt;br&gt;?&lt;br&gt;&lt;/font&gt;" style="rhombus;whiteSpace=wrap;html=1;rounded=0;shadow=1;labelBackgroundColor=none;strokeWidth=1;fontFamily=Verdana;fontSize=8;align=center;" parent="1" vertex="1">
          <mxGeometry x="297.5" y="165" width="145" height="130" as="geometry"/>
        </mxCell>
        <mxCell id="RpBlWgj2_w3Yq7llD_Vg-21" style="edgeStyle=orthogonalEdgeStyle;rounded=0;orthogonalLoop=1;jettySize=auto;html=1;" edge="1" parent="1" source="RpBlWgj2_w3Yq7llD_Vg-6">
          <mxGeometry relative="1" as="geometry">
            <mxPoint x="180" y="220" as="targetPoint"/>
          </mxGeometry>
        </mxCell>
        <mxCell id="RpBlWgj2_w3Yq7llD_Vg-6" value="Api&amp;nbsp;" style="ellipse;shape=cloud;whiteSpace=wrap;html=1;" vertex="1" parent="1">
          <mxGeometry x="120" y="267.5" width="120" height="85" as="geometry"/>
        </mxCell>
        <mxCell id="RpBlWgj2_w3Yq7llD_Vg-24" style="edgeStyle=orthogonalEdgeStyle;rounded=0;orthogonalLoop=1;jettySize=auto;html=1;entryX=0.5;entryY=0;entryDx=0;entryDy=0;" edge="1" parent="1" target="60e70716793133e9-5">
          <mxGeometry relative="1" as="geometry">
            <mxPoint x="180.1428571428571" y="165" as="sourcePoint"/>
            <Array as="points">
              <mxPoint x="180" y="145"/>
              <mxPoint x="330" y="145"/>
              <mxPoint x="330" y="165"/>
            </Array>
          </mxGeometry>
        </mxCell>
        <mxCell id="RpBlWgj2_w3Yq7llD_Vg-29" value="Save to&lt;br&gt;Cache" style="shape=cylinder;whiteSpace=wrap;html=1;boundedLbl=1;backgroundOutline=1;" vertex="1" parent="1">
          <mxGeometry x="150" y="150" width="60" height="80" as="geometry"/>
        </mxCell>
        <mxCell id="RpBlWgj2_w3Yq7llD_Vg-38" style="edgeStyle=orthogonalEdgeStyle;rounded=0;orthogonalLoop=1;jettySize=auto;html=1;entryX=-0.03;entryY=0.377;entryDx=0;entryDy=0;entryPerimeter=0;" edge="1" parent="1" source="RpBlWgj2_w3Yq7llD_Vg-30" target="RpBlWgj2_w3Yq7llD_Vg-37">
          <mxGeometry relative="1" as="geometry">
            <Array as="points">
              <mxPoint x="470" y="410"/>
              <mxPoint x="470" y="310"/>
            </Array>
          </mxGeometry>
        </mxCell>
        <mxCell id="RpBlWgj2_w3Yq7llD_Vg-30" value="&lt;span style=&quot;white-space: normal&quot;&gt;Fetch From Cache&lt;/span&gt;" style="shape=cylinder;whiteSpace=wrap;html=1;boundedLbl=1;backgroundOutline=1;" vertex="1" parent="1">
          <mxGeometry x="340" y="370" width="60" height="80" as="geometry"/>
        </mxCell>
        <mxCell id="RpBlWgj2_w3Yq7llD_Vg-37" value="Display To User" style="whiteSpace=wrap;html=1;aspect=fixed;" vertex="1" parent="1">
          <mxGeometry x="510" y="280" width="80" height="80" as="geometry"/>
        </mxCell>
      </root>
    </mxGraphModel>
  </diagram>
</mxfile>
